<?xml version="1.0" encoding="UTF-8" standalone="no" ?>
<!DOCTYPE svg PUBLIC "-//W3C//DTD SVG 1.1//EN" "http://www.w3.org/Graphics/SVG/1.1/DTD/svg11.dtd">
<svg xmlns="http://www.w3.org/2000/svg" xmlns:xlink="http://www.w3.org/1999/xlink" version="1.1" width="1080" height="1080" viewBox="0 0 1080 1080" xml:space="preserve">
<desc>Created with Fabric.js 5.2.4</desc>
<defs>
</defs>
<g transform="matrix(1 0 0 1 540 540)" id="d2bbd5c4-cb7c-4f66-9789-28d783e11db6"  >
<rect style="stroke: none; stroke-width: 1; stroke-dasharray: none; stroke-linecap: butt; stroke-dashoffset: 0; stroke-linejoin: miter; stroke-miterlimit: 4; fill: rgb(255,255,255); fill-rule: nonzero; opacity: 1; visibility: hidden;" vector-effect="non-scaling-stroke"  x="-540" y="-540" rx="0" ry="0" width="1080" height="1080" />
</g>
<g transform="matrix(1 0 0 1 540 540)" id="59f5886f-2593-4cb5-9286-19e97d16830a"  >
</g>
<g transform="matrix(5.4 0 0 5.4 540 540)"  >
<g style=""   >
		<g transform="matrix(1 0 0 1 -74.59 -0.09)"  >
<path style="stroke: none; stroke-width: 1; stroke-dasharray: none; stroke-linecap: butt; stroke-dashoffset: 0; stroke-linejoin: miter; stroke-miterlimit: 4; fill: rgb(255,255,255); fill-rule: nonzero; opacity: 1;" vector-effect="non-scaling-stroke"  transform=" translate(-25.41, -25.41)" d="M 25.41 0 C 5.08 0 0 5.08 0 25.41 C 0 45.74 5.08 50.82 25.41 50.82 C 45.74 50.82 50.82 45.74 50.82 25.41 C 50.82 5.079999999999998 45.74 0 25.41 0 z M 21.240000000000002 39.31 C 15.87020576085158 39.293443515572186 11.528991365435097 34.92987008397742 11.540020523476603 29.560061647390402 C 11.551049681518109 24.190253210803387 15.910152237148928 19.844549535978796 21.279969181696035 19.85005135594826 C 26.64978612624314 19.855553175917724 30.999974476068072 24.210180236980303 31 29.579999999999984 C 30.988965136171505 34.96087017830727 26.620878651415694 39.315530167720596 21.240000000000002 39.31 z M 38.910000000000004 38.910000000000004 L 34.14 38.910000000000004 L 34.14 16.67 L 11.91 16.67 L 11.91 11.910000000000002 L 38.91 11.910000000000002 z" stroke-linecap="round" />
</g>
		<g transform="matrix(1 0 0 1 -78.76 4.08)"  >
<circle style="stroke: none; stroke-width: 1; stroke-dasharray: none; stroke-linecap: butt; stroke-dashoffset: 0; stroke-linejoin: miter; stroke-miterlimit: 4; fill: rgb(255,255,255); fill-rule: nonzero; opacity: 1;" vector-effect="non-scaling-stroke"  cx="0" cy="0" r="4.96" />
</g>
</g>
</g>
</svg>