<?xml version="1.0" encoding="UTF-8" standalone="no" ?>
<!DOCTYPE svg PUBLIC "-//W3C//DTD SVG 1.1//EN" "http://www.w3.org/Graphics/SVG/1.1/DTD/svg11.dtd">
<svg xmlns="http://www.w3.org/2000/svg" xmlns:xlink="http://www.w3.org/1999/xlink" version="1.1" width="1080" height="1080" viewBox="0 0 1080 1080" xml:space="preserve">
<desc>Created with Fabric.js 5.2.4</desc>
<defs>
</defs>
<g transform="matrix(1 0 0 1 540 540)" id="77651417-fc03-41ef-a622-28a3dc377a3c"  >
<rect style="stroke: none; stroke-width: 1; stroke-dasharray: none; stroke-linecap: butt; stroke-dashoffset: 0; stroke-linejoin: miter; stroke-miterlimit: 4; fill: rgb(255,255,255); fill-rule: nonzero; opacity: 1; visibility: hidden;" vector-effect="non-scaling-stroke"  x="-540" y="-540" rx="0" ry="0" width="1080" height="1080" />
</g>
<g transform="matrix(1 0 0 1 540 540)" id="fd794deb-b82b-42fd-a49a-64a71b6ec824"  >
</g>
<g transform="matrix(5.4 0 0 5.4 540 540)"  >
<g style=""   >
		<g transform="matrix(1 0 0 1 -74.59 -0.09)"  >
<path style="stroke: none; stroke-width: 1; stroke-dasharray: none; stroke-linecap: butt; stroke-dashoffset: 0; stroke-linejoin: miter; stroke-miterlimit: 4; fill: rgb(255,255,255); fill-rule: nonzero; opacity: 1;" vector-effect="non-scaling-stroke"  transform=" translate(-25.41, -25.41)" d="M 25.41 0 C 5.08 0 0 5.08 0 25.41 C 0 45.74 5.08 50.82 25.41 50.82 C 45.74 50.82 50.82 45.74 50.82 25.41 C 50.82 5.079999999999998 45.74 0 25.41 0 z M 21.240000000000002 39.31 C 15.87020576085158 39.293443515572186 11.528991365435097 34.92987008397742 11.540020523476603 29.560061647390402 C 11.551049681518109 24.190253210803387 15.910152237148928 19.844549535978796 21.279969181696035 19.85005135594826 C 26.64978612624314 19.855553175917724 30.999974476068072 24.210180236980303 31 29.579999999999984 C 30.988965136171505 34.96087017830727 26.620878651415694 39.315530167720596 21.240000000000002 39.31 z M 38.910000000000004 38.910000000000004 L 34.14 38.910000000000004 L 34.14 16.67 L 11.91 16.67 L 11.91 11.910000000000002 L 38.91 11.910000000000002 z" stroke-linecap="round" />
</g>
		<g transform="matrix(1 0 0 1 -78.76 4.08)"  >
<circle style="stroke: none; stroke-width: 1; stroke-dasharray: none; stroke-linecap: butt; stroke-dashoffset: 0; stroke-linejoin: miter; stroke-miterlimit: 4; fill: rgb(255,255,255); fill-rule: nonzero; opacity: 1;" vector-effect="non-scaling-stroke"  cx="0" cy="0" r="4.96" />
</g>
		<g transform="matrix(1 0 0 1 -24.97 -0.05)"  >
<path style="stroke: none; stroke-width: 1; stroke-dasharray: none; stroke-linecap: butt; stroke-dashoffset: 0; stroke-linejoin: miter; stroke-miterlimit: 4; fill: rgb(255,255,255); fill-rule: nonzero; opacity: 1;" vector-effect="non-scaling-stroke"  transform=" translate(-75.03, -25.45)" d="M 70.9 28.81 C 73.27000000000001 22.22 74.22 19.549999999999997 75.09 16.81 C 76.35000000000001 20.729999999999997 77.65 24.39 79.17 28.81 z M 72.54 12 L 62.33 38.91 L 67.55 38.91 L 69.72 32.62 L 80.35 32.62 L 82.47999999999999 38.91 L 87.74 38.91 L 77.91 12 z" stroke-linecap="round" />
</g>
		<g transform="matrix(1 0 0 1 -1.51 0.15)"  >
<path style="stroke: none; stroke-width: 1; stroke-dasharray: none; stroke-linecap: butt; stroke-dashoffset: 0; stroke-linejoin: miter; stroke-miterlimit: 4; fill: rgb(255,255,255); fill-rule: nonzero; opacity: 1;" vector-effect="non-scaling-stroke"  transform=" translate(-98.49, -25.65)" d="M 98.43 35.56 C 95.61000000000001 35.56 93.97000000000001 33.230000000000004 93.97000000000001 29.19 C 93.97000000000001 25.57 95.88000000000001 23.29 98.58000000000001 23.29 C 101.13000000000001 23.29 102.70000000000002 25.61 102.70000000000002 29.419999999999998 C 102.70000000000002 33.42 101.06000000000002 35.559999999999995 98.43000000000002 35.559999999999995 M 94.09000000000002 22.489999999999995 L 94.09000000000002 12 L 89.63000000000002 12 L 89.63000000000002 38.9 L 93.90000000000002 38.9 L 93.90000000000002 36.43 C 95.13035483247036 38.321350441160526 97.27697085329427 39.41181612847072 99.53000000000002 39.29 C 104.22000000000001 39.29 107.34000000000002 35.629999999999995 107.34000000000002 29.42 C 107.34000000000002 23.210000000000008 104.49000000000002 19.550000000000004 100.03000000000002 19.550000000000004 C 97.69358907330367 19.52289338064847 95.48538210429476 20.61584430470339 94.09000000000002 22.49000000000001 z" stroke-linecap="round" />
</g>
		<g transform="matrix(1 0 0 1 16.41 3.94)"  >
<path style="stroke: none; stroke-width: 1; stroke-dasharray: none; stroke-linecap: butt; stroke-dashoffset: 0; stroke-linejoin: miter; stroke-miterlimit: 4; fill: rgb(255,255,255); fill-rule: nonzero; opacity: 1;" vector-effect="non-scaling-stroke"  transform=" translate(-116.41, -29.44)" d="M 116.71 22.8 C 118.53267321721165 22.797273174862788 120.19756639202731 23.833465430517297 121 25.47 L 124.32 23.22 C 122.6822303873253 20.70838297894074 119.83487340829788 19.25425147360856 116.83999999999997 19.4 C 112.14999999999999 19.4 109.47999999999999 22.15 109.47999999999999 25.13 C 109.47999999999999 28.11 111.35 29.74 114.28999999999999 30.66 L 116.28999999999999 31.31 C 119.14999999999999 32.22 119.8 32.76 119.8 34.019999999999996 C 119.8 35.279999999999994 118.73 36.019999999999996 116.8 36.019999999999996 C 114.72303117745649 36.01889522870022 112.83512714284868 34.81360112396093 111.96 32.92999999999999 L 108.49 35.21999999999999 C 110.26435874506404 37.96467272581716 113.34307383134639 39.583652210844946 116.61 39.489999999999995 C 121.34 39.489999999999995 124.28 36.92999999999999 124.28 33.419999999999995 C 124.28 30.419999999999995 122.37 28.809999999999995 119.02 27.739999999999995 L 117.02 27.129999999999995 C 114.58 26.369999999999994 114.02 25.829999999999995 114.02 24.689999999999994 C 114.02 23.549999999999994 114.94 22.819999999999993 116.83999999999999 22.819999999999993" stroke-linecap="round" />
</g>
		<g transform="matrix(1 0 0 1 31.43 1.08)"  >
<path style="stroke: none; stroke-width: 1; stroke-dasharray: none; stroke-linecap: butt; stroke-dashoffset: 0; stroke-linejoin: miter; stroke-miterlimit: 4; fill: rgb(255,255,255); fill-rule: nonzero; opacity: 1;" vector-effect="non-scaling-stroke"  transform=" translate(-131.43, -26.58)" d="M 133.3 23.52 L 137 23.52 L 137 20 L 133.3 20 L 133.3 13.8 L 128.86 13.8 L 128.78 20 L 125.78 20 L 125.78 23.57 L 128.78 23.57 L 128.78 33.97 C 128.6435488411584 35.388663289630955 129.0234712148249 36.80893384539351 129.85 37.97 C 130.62 38.89 131.85 39.35 133.75 39.35 C 134.8704028288351 39.34771778090709 135.98598495182117 39.203229734857686 137.07 38.92 L 137.07 35.33 C 136.48429072196106 35.54970224168226 135.86544534950156 35.66806064625102 135.23999999999998 35.68 C 133.85999999999999 35.68 133.29999999999998 34.99 133.29999999999998 33.04 z" stroke-linecap="round" />
</g>
		<g transform="matrix(1 0 0 1 45.07 3.85)"  >
<path style="stroke: none; stroke-width: 1; stroke-dasharray: none; stroke-linecap: butt; stroke-dashoffset: 0; stroke-linejoin: miter; stroke-miterlimit: 4; fill: rgb(255,255,255); fill-rule: nonzero; opacity: 1;" vector-effect="non-scaling-stroke"  transform=" translate(-145.07, -29.35)" d="M 143.77 20 L 139.5 20 L 139.5 39 L 144 39 L 144 30.119999999999997 C 143.89026030254396 28.59939945288762 144.23856524737508 27.080789893424082 145 25.759999999999998 C 145.90081020763745 24.46167061598475 147.42500705259997 23.741487606739955 149 23.869999999999997 C 149.55544875770264 23.878881568318178 150.10713334639675 23.962979828789845 150.64 24.119999999999997 L 150.64 20 C 150.11258363969694 19.81410571766636 149.55907020580665 19.712853260247407 149 19.700000000000003 C 146.75844417519446 19.57300926571509 144.66913349886588 20.83612864798218 143.74 22.880000000000003 z" stroke-linecap="round" />
</g>
		<g transform="matrix(1 0 0 1 60.65 3.86)"  >
<path style="stroke: none; stroke-width: 1; stroke-dasharray: none; stroke-linecap: butt; stroke-dashoffset: 0; stroke-linejoin: miter; stroke-miterlimit: 4; fill: rgb(255,255,255); fill-rule: nonzero; opacity: 1;" vector-effect="non-scaling-stroke"  transform=" translate(-160.65, -29.36)" d="M 163.54 30.93 C 163.5510496633929 31.989541836427968 163.2596502208666 33.030254131164696 162.7 33.93 C 161.80096081829876 35.242061438333245 160.28907265968732 35.99800551763896 158.7 35.93 C 156.7 35.93 155.79999999999998 34.93 155.79999999999998 33.53 C 155.75630392021637 32.47166630100809 156.42898735819088 31.515963611690612 157.43999999999997 31.200000000000003 C 159.3856791812267 30.48313765375031 161.43694002307723 30.094513276793453 163.50999999999996 30.050000000000004 z M 167.79 26.93 C 167.79 23.93 167.39 22.39 166.20999999999998 21.28 C 165.02999999999997 20.17 163.11999999999998 19.450000000000003 160.51999999999998 19.450000000000003 C 155.67 19.450000000000003 152.60999999999999 21.740000000000002 152.30999999999997 25.870000000000005 L 156.58999999999997 26.250000000000004 C 156.81999999999996 24.150000000000002 157.84999999999997 22.960000000000004 160.17999999999998 22.960000000000004 C 161.12877085619334 22.87652075135967 162.07259172194657 23.167203223321692 162.80999999999997 23.770000000000003 C 163.3618460564329 24.398238139085976 163.62644724716057 25.228288449724825 163.53999999999996 26.060000000000002 L 163.53999999999996 27.060000000000002 C 160.53999999999996 27.250000000000004 156.85999999999996 27.78 154.98999999999995 28.62 C 152.8544815318247 29.383880189738786 151.4509311479984 31.432741094864504 151.50999999999996 33.7 C 151.50999999999996 37.1 153.95999999999995 39.27 157.42999999999995 39.27 C 159.81301037827905 39.38888151877029 162.11443250124358 38.386171879986705 163.64999999999995 36.56 C 164.05999999999995 38.46 165.39999999999995 39.17 167.78999999999994 39.17 C 168.46913309280285 39.176728476302294 169.14477054506025 39.07200467120239 169.78999999999994 38.86 L 169.78999999999994 36 C 168.05999999999995 36.31 167.78999999999994 35.3 167.78999999999994 33.82 z" stroke-linecap="round" />
</g>
		<g transform="matrix(1 0 0 1 79.19 3.92)"  >
<path style="stroke: none; stroke-width: 1; stroke-dasharray: none; stroke-linecap: butt; stroke-dashoffset: 0; stroke-linejoin: miter; stroke-miterlimit: 4; fill: rgb(255,255,255); fill-rule: nonzero; opacity: 1;" vector-effect="non-scaling-stroke"  transform=" translate(-179.19, -29.42)" d="M 175.35 29.31 C 175.35 25.08 177.35 23.14 179.92 23.14 C 181.72 23.14 183.08999999999997 23.98 183.61999999999998 26.490000000000002 L 187.61999999999998 25.12 C 186.83456760404252 21.597394930568395 183.6018157261561 19.170709793887248 180 19.4 C 174.31 19.4 170.73 23.18 170.73 29.4 C 170.73 35.62 174.23999999999998 39.46 179.73 39.46 C 184.04 39.46 186.56 37.18 187.66 34.01 L 183.66 32.64 C 183.44080059435476 34.48797549114998 181.81745433571925 35.84368898822665 179.96 35.730000000000004 C 177.1 35.720000000000006 175.35 33.510000000000005 175.35 29.310000000000002 z" stroke-linecap="round" />
</g>
		<g transform="matrix(1 0 0 1 94.35 1.08)"  >
<path style="stroke: none; stroke-width: 1; stroke-dasharray: none; stroke-linecap: butt; stroke-dashoffset: 0; stroke-linejoin: miter; stroke-miterlimit: 4; fill: rgb(255,255,255); fill-rule: nonzero; opacity: 1;" vector-effect="non-scaling-stroke"  transform=" translate(-194.35, -26.58)" d="M 196.23 23.52 L 199.89999999999998 23.52 L 199.89999999999998 20 L 196.23 20 L 196.23 13.8 L 191.79 13.8 L 191.70999999999998 20 L 188.70999999999998 20 L 188.70999999999998 23.57 L 191.70999999999998 23.57 L 191.70999999999998 33.97 C 191.57354884115838 35.388663289630955 191.95347121482487 36.80893384539351 192.77999999999997 37.97 C 193.54999999999998 38.89 194.77999999999997 39.35 196.67999999999998 39.35 C 197.80040282883508 39.34771778090709 198.91598495182114 39.203229734857686 199.99999999999997 38.92 L 199.99999999999997 35.33 C 199.41429072196104 35.54970224168226 198.79544534950153 35.66806064625102 198.16999999999996 35.68 C 196.78999999999996 35.68 196.22999999999996 34.99 196.22999999999996 33.04 z" stroke-linecap="round" />
</g>
</g>
</g>
</svg>